<?xml version="1.0" standalone="no"?>
<!DOCTYPE svg PUBLIC "-//W3C//DTD SVG 20010904//EN"
 "http://www.w3.org/TR/2001/REC-SVG-20010904/DTD/svg10.dtd">
<svg version="1.0" xmlns="http://www.w3.org/2000/svg"
 width="1585.000000pt" height="1153.000000pt" viewBox="0 0 1585.000000 1153.000000"
 preserveAspectRatio="xMidYMid meet">
<metadata>
Created by potrace 1.16, written by Peter Selinger 2001-2019
</metadata>
<g transform="translate(0.000000,1153.000000) scale(0.100000,-0.100000)"
fill="#000000" stroke="none">
<path d="M8305 11103 c-22 -1 -112 -7 -200 -13 -740 -50 -1946 -228 -2474
-366 -175 -45 -234 -73 -256 -121 -45 -94 -61 -413 -46 -878 6 -176 13 -343
17 -372 l5 -51 -58 -12 c-537 -103 -939 -513 -1060 -1080 -27 -129 -25 -439 5
-572 63 -284 183 -509 377 -704 55 -56 115 -112 132 -125 l32 -24 -101 3
c-161 5 -320 -39 -542 -150 -65 -32 -119 -58 -120 -56 -2 2 -21 41 -45 86 -75
150 -183 296 -309 418 l-64 62 12 153 c39 479 -75 904 -265 990 -216 99 -440
-198 -526 -695 l-11 -68 -47 6 c-25 4 -122 9 -215 12 l-169 5 -37 92 c-95 236
-221 437 -352 563 -103 99 -158 127 -253 132 -87 4 -134 -20 -183 -92 -57 -86
-67 -137 -66 -351 0 -167 3 -205 27 -315 14 -69 40 -168 56 -220 17 -52 29
-95 28 -95 -23 -8 -145 -111 -219 -183 l-97 -95 -33 27 c-292 239 -508 345
-682 334 -78 -5 -132 -33 -171 -87 -28 -39 -30 -51 -33 -140 -3 -88 -1 -107
27 -191 71 -212 217 -432 432 -655 l87 -90 -10 -70 c-16 -111 -3 -423 21 -533
88 -398 299 -731 617 -976 l67 -51 18 -81 c33 -155 92 -308 215 -554 385 -777
811 -1405 1301 -1917 359 -375 771 -637 1052 -669 47 -5 71 -14 104 -39 125
-95 237 -135 398 -142 146 -7 252 13 364 67 250 121 375 324 516 835 24 88 45
153 46 145 1 -8 14 -91 29 -185 14 -93 30 -177 35 -187 9 -16 27 -18 189 -18
165 0 180 -1 180 -17 0 -10 5 -173 10 -363 15 -543 35 -804 65 -877 25 -61
125 -90 398 -118 83 -9 171 -18 195 -21 l42 -5 0 -205 0 -204 1930 0 1930 0 0
204 0 205 43 5 c23 3 94 10 157 16 244 23 381 53 419 94 29 30 46 128 60 346
12 171 31 700 31 853 l0 87 179 0 c131 0 181 3 189 13 19 24 56 267 77 511 8
93 17 171 19 173 9 9 143 -68 199 -115 170 -140 326 -404 445 -752 l36 -107
-41 -49 c-177 -213 -328 -570 -426 -1009 -23 -99 -69 -360 -79 -442 l-5 -33
257 0 257 0 7 93 c37 513 138 1074 253 1420 32 94 47 106 161 127 262 51 554
-158 829 -594 131 -207 292 -558 408 -891 l53 -150 56 -3 56 -3 -56 163 c-195
569 -434 1015 -690 1287 -82 87 -211 190 -281 224 l-43 21 -46 140 c-267 801
-674 1262 -1239 1406 l-110 28 -8 84 c-40 449 -67 624 -98 651 -19 15 -45 17
-205 17 -101 0 -184 3 -184 8 -1 62 -33 290 -46 320 -14 36 -23 44 -70 61
-145 55 -986 128 -1791 157 l-193 7 0 344 c0 320 1 343 18 343 9 0 139 5 287
10 1096 40 1769 113 1975 213 102 50 123 94 185 402 29 147 105 608 105 643 0
9 29 12 99 12 474 0 929 295 1156 749 54 108 111 291 131 416 20 135 15 408
-11 525 -89 397 -316 718 -645 910 -119 69 -286 129 -430 154 l-35 6 8 142
c15 248 14 922 -1 1023 -20 133 -39 170 -105 201 -286 130 -1746 360 -2727
429 -190 13 -776 19 -905 8z m980 -118 c908 -73 2094 -254 2523 -384 90 -28
108 -42 122 -98 18 -71 24 -680 11 -983 -48 -1044 -198 -2553 -336 -3375 -56
-331 -72 -403 -94 -409 -9 -3 -70 -14 -136 -25 -560 -92 -1632 -153 -2690
-153 -1082 0 -2199 65 -2735 160 l-95 17 -32 155 c-122 591 -285 2050 -358
3200 -48 763 -45 1404 7 1467 23 28 268 93 568 152 661 129 1605 250 2265 291
195 12 752 4 980 -15z m-3921 -1892 c3 -54 11 -170 16 -258 16 -247 56 -714
96 -1108 20 -197 33 -362 29 -365 -9 -9 -300 -8 -346 1 l-37 7 -11 78 c-50
345 -66 598 -65 1022 0 306 4 412 18 515 9 71 20 133 24 136 18 17 196 66 243
68 26 1 26 0 33 -96z m6785 77 c111 -28 150 -46 155 -73 37 -175 44 -916 13
-1252 -20 -217 -52 -463 -61 -472 -18 -18 -364 -28 -382 -11 -2 2 12 157 31
344 42 419 79 860 100 1189 8 138 18 260 20 273 7 28 24 28 124 2z m-7184
-182 c-4 -46 -9 -101 -11 -123 -12 -123 -15 -574 -5 -765 11 -198 40 -513 59
-652 10 -69 14 -68 -113 -33 -205 56 -412 165 -529 278 l-44 42 -7 99 c-31
412 142 839 439 1086 59 49 203 150 214 150 2 0 1 -37 -3 -82z m7609 -25 c197
-147 349 -366 431 -617 51 -158 60 -222 60 -423 l0 -182 -35 -36 c-75 -78
-250 -184 -402 -244 -87 -34 -246 -77 -254 -68 -4 3 1 64 10 134 32 252 47
473 53 758 5 266 -7 647 -24 749 l-6 39 41 -23 c23 -13 80 -52 126 -87z
m-10765 -749 c108 -54 250 -231 360 -448 l50 -100 -20 -28 c-41 -56 -180 -134
-301 -168 -47 -13 -103 -20 -159 -20 l-86 0 -11 38 c-54 187 -76 441 -48 573
36 167 98 211 215 153z m1495 -24 c110 -53 190 -290 203 -597 l6 -152 -37 -6
c-49 -10 -160 2 -253 26 -85 21 -193 76 -254 129 l-41 35 27 105 c34 126 80
243 129 327 38 66 114 139 149 146 12 2 24 5 26 6 3 0 23 -8 45 -19z m-626
-755 c352 -26 753 -231 989 -505 107 -124 253 -357 253 -403 0 -8 -19 -27 -42
-42 -155 -102 -353 -280 -459 -413 -147 -184 -201 -354 -146 -462 79 -155 313
-168 641 -36 52 21 86 30 86 23 0 -26 -105 -228 -165 -317 -231 -347 -580
-580 -1005 -671 -90 -20 -134 -23 -310 -23 -175 0 -220 3 -307 22 -326 71
-581 208 -809 436 -66 67 -147 159 -179 205 -73 105 -166 286 -202 394 -26 78
-27 92 -27 272 0 158 4 208 23 295 67 315 197 556 421 781 269 270 591 420
961 448 101 8 126 7 277 -4z m-1927 -226 c88 -34 213 -106 311 -181 l69 -52
-7 -46 c-10 -72 -51 -191 -82 -240 -50 -79 -205 -200 -257 -200 -52 0 -271
363 -310 515 -56 220 44 293 276 204z m4349 -593 c132 -48 228 -67 372 -73
l138 -6 5 -31 c3 -17 19 -123 36 -236 60 -406 125 -680 174 -738 67 -80 361
-144 876 -192 363 -33 601 -47 1337 -76 l152 -6 0 -344 0 -344 -78 0 c-194 0
-989 -47 -1357 -81 -415 -38 -561 -64 -606 -108 -30 -30 -45 -97 -57 -261 l-7
-95 -192 -5 c-125 -3 -196 -9 -204 -17 -25 -25 -69 -325 -89 -613 -7 -91 -13
-165 -14 -166 -155 -59 -253 -123 -357 -231 -94 -97 -146 -173 -215 -316 l-54
-112 0 60 c0 33 -7 121 -15 195 -70 611 -263 1293 -572 2020 -74 174 -221 481
-264 553 l-23 37 22 93 c11 50 24 106 27 124 5 25 17 38 53 59 87 51 196 127
292 203 349 279 530 591 443 764 l-14 28 58 -29 c32 -16 92 -42 133 -56z
m-330 58 c72 -29 90 -107 46 -199 -31 -64 -134 -192 -225 -278 -271 -256 -625
-458 -914 -522 -103 -23 -247 -18 -295 10 -29 17 -32 23 -26 55 9 59 71 174
143 267 309 400 1014 770 1271 667z m-653 -1524 c362 -751 622 -1572 714
-2252 26 -196 37 -589 20 -738 -26 -226 -77 -387 -163 -515 -117 -175 -284
-242 -507 -204 -64 11 -69 15 -150 93 -225 218 -517 604 -753 996 -273 453
-523 977 -743 1555 l-73 190 132 7 c558 29 1041 321 1332 804 34 57 72 128 85
159 28 68 27 70 106 -95z m4973 75 l0 -35 -400 0 -400 0 0 35 0 35 400 0 400
0 0 -35z m0 -120 l0 -35 -400 0 -400 0 0 35 0 35 400 0 400 0 0 -35z m0 -125
l0 -40 -400 0 -400 0 0 40 0 40 400 0 400 0 0 -40z m0 -125 l0 -35 -400 0
-400 0 0 35 0 35 400 0 400 0 0 -35z m0 -125 l0 -40 -400 0 -400 0 0 40 0 40
400 0 400 0 0 -40z m0 -120 l0 -30 -400 0 -400 0 0 30 0 30 400 0 400 0 0 -30z
m365 -150 c774 -39 1257 -75 1529 -115 126 -19 173 -32 179 -49 9 -24 26 -200
37 -381 41 -711 36 -2555 -8 -3090 l-7 -80 -50 -6 c-28 -4 -95 -10 -150 -14
l-99 -7 58 63 c31 35 73 95 92 134 67 137 65 80 62 1468 l-3 1252 -27 75 c-65
178 -193 303 -375 368 l-78 27 -1920 0 c-1834 0 -1923 -1 -1979 -18 -107 -33
-177 -76 -257 -156 -80 -80 -123 -150 -156 -257 -17 -56 -18 -125 -18 -1324 0
-1200 1 -1268 18 -1325 29 -92 84 -189 144 -251 l54 -57 -88 7 c-219 17 -212
15 -218 50 -13 79 -26 444 -37 1020 -15 852 5 2006 42 2356 17 159 17 158 60
170 179 48 954 110 1880 150 250 10 1027 5 1315 -10z m1227 -451 c133 -52 224
-130 286 -246 49 -92 62 -165 62 -350 l0 -163 -2006 0 c-1505 0 -2011 -3
-2027 -12 -12 -6 -51 -33 -86 -60 -35 -26 -70 -48 -78 -48 -8 0 -52 27 -98 60
l-83 60 -85 0 c-70 0 -89 -3 -111 -21 l-26 -20 -1 -1152 -1 -1152 -24 52 c-56
117 -55 89 -52 1426 3 1165 4 1235 22 1287 60 182 205 315 386 354 55 12 360
14 1960 13 l1895 -2 67 -26z m-4606 -221 c-11 -200 -25 -844 -26 -1105 l0
-243 -174 0 -173 0 -6 83 c-18 229 0 946 29 1148 9 68 35 213 39 227 3 9 45
12 161 12 l156 0 -6 -122z m5544 110 c0 -7 9 -63 20 -124 33 -193 53 -502 53
-854 1 -179 -3 -360 -7 -402 l-8 -78 -174 0 -174 0 0 318 c0 292 -13 874 -24
1070 l-5 82 159 0 c121 0 160 -3 160 -12z m-4908 -726 c123 -85 103 -84 201
-14 l85 62 1946 0 c1933 0 1946 0 1966 -20 19 -19 20 -33 20 -255 0 -222 -1
-236 -20 -255 -20 -20 -33 -20 -1959 -20 l-1940 0 -94 -64 -94 -65 -88 65 -87
64 -70 0 c-64 0 -72 3 -99 29 l-29 29 0 216 c0 211 0 215 24 242 17 20 37 30
72 35 70 10 91 4 166 -49z m5496 -165 c22 -12 20 -14 -35 -31 -129 -41 -263
-129 -336 -222 -41 -53 -55 -56 -43 -9 8 31 94 124 157 171 51 37 192 104 219
104 8 -1 25 -6 38 -13z m108 -71 c18 -14 18 -15 -11 -21 -88 -20 -148 -41
-217 -77 -81 -42 -187 -131 -229 -192 -24 -36 -49 -47 -49 -22 0 24 90 136
143 177 74 59 133 91 222 121 92 32 113 34 141 14z m108 -84 c3 -4 -37 -16
-87 -25 -145 -27 -336 -132 -398 -218 -20 -29 -43 -37 -54 -19 -9 15 118 142
179 179 143 86 331 129 360 83z m-7021 -48 c34 -8 89 -30 122 -47 48 -26 61
-37 63 -59 l3 -28 -73 39 c-84 45 -155 67 -250 76 -52 5 -66 10 -61 21 7 19
115 19 196 -2z m7095 -27 c9 -10 -10 -16 -92 -29 -152 -24 -276 -83 -379 -177
-29 -27 -47 -37 -56 -31 -8 4 -11 15 -8 23 10 27 136 124 202 156 119 59 306
91 333 58z m-7101 -67 c34 -12 90 -39 125 -59 54 -33 63 -43 66 -71 l3 -33
-38 30 c-94 74 -232 123 -348 123 l-68 0 19 21 c17 20 26 21 99 16 44 -4 108
-16 142 -27z m7183 -20 c10 -19 8 -20 -58 -20 -134 0 -294 -57 -407 -144 -50
-39 -85 -50 -85 -26 0 4 18 24 40 43 111 102 275 164 432 166 58 1 69 -2 78
-19z m-7222 -66 c138 -45 272 -151 236 -187 -3 -3 -33 16 -66 43 -109 88 -247
139 -375 140 -42 0 -51 3 -47 14 12 32 141 26 252 -10z m1371 -50 l92 -66 37
25 c20 14 64 44 96 66 l59 41 1314 -2 1315 -3 19 -24 c17 -21 19 -42 19 -251
0 -209 -2 -230 -19 -251 l-19 -24 -1324 -5 -1325 -5 -54 -40 c-30 -23 -68 -51
-85 -63 l-31 -21 -84 62 c-82 61 -84 62 -161 68 -125 9 -122 4 -126 261 -2
150 0 220 9 241 15 37 58 56 125 57 47 0 58 -5 143 -66z m5895 46 c46 -17 29
-30 -41 -30 -133 -1 -267 -42 -385 -119 -70 -45 -98 -53 -98 -28 0 18 97 86
166 118 121 55 293 84 358 59z m79 -94 c4 -10 -16 -14 -91 -19 -150 -10 -277
-51 -388 -128 -37 -25 -43 -27 -55 -13 -11 13 -8 19 17 40 43 36 181 101 249
118 80 19 261 21 268 2z m-7465 -28 c127 -41 299 -184 285 -236 -8 -31 -16
-28 -49 19 -65 95 -197 189 -324 231 -49 17 -51 18 -15 13 22 -3 68 -15 103
-27z m-85 -41 c126 -46 228 -124 302 -231 32 -46 36 -58 29 -91 l-7 -37 -28
53 c-78 142 -198 249 -342 304 -80 31 -39 32 46 2z m7607 -17 c8 -13 -10 -16
-113 -21 -69 -4 -146 -14 -177 -24 -59 -19 -159 -66 -201 -96 -20 -14 -29 -15
-37 -7 -19 19 -15 24 39 58 62 41 152 77 233 96 80 18 244 14 256 -6z m-7635
-45 c120 -53 236 -170 296 -300 24 -51 30 -73 25 -101 -7 -32 -26 -40 -26 -9
0 7 -21 55 -47 106 -60 120 -170 235 -280 291 -39 20 -69 39 -65 42 7 8 31 0
97 -29z m7639 -23 c22 -4 41 -13 44 -20 3 -9 -17 -12 -78 -12 -143 0 -310 -49
-409 -119 -26 -19 -27 -19 -39 -1 -10 16 -7 22 16 38 124 88 330 138 466 114z
m-7553 -142 c84 -83 141 -182 174 -302 16 -59 16 -73 4 -115 l-13 -48 -18 90
c-19 93 -65 203 -117 278 -57 83 -117 137 -240 213 -1 2 0 8 4 14 12 20 127
-52 206 -130z m7630 50 c35 -19 19 -28 -43 -23 -121 10 -304 -36 -409 -103
-45 -28 -55 -30 -63 -8 -8 20 8 33 91 74 93 46 193 69 306 69 54 1 107 -4 118
-9z m-7657 -151 c89 -119 136 -258 136 -404 -1 -79 -4 -95 -26 -130 -15 -22
-23 -32 -20 -22 14 42 18 177 7 247 -24 152 -81 274 -181 384 l-55 60 48 -38
c26 -21 67 -65 91 -97z m7706 61 c8 -13 -9 -16 -113 -21 -140 -7 -245 -36
-339 -93 -55 -34 -68 -33 -68 4 0 23 154 93 255 116 80 18 253 14 265 -6z
m-7881 -102 c16 -35 36 -93 45 -129 20 -83 21 -236 1 -314 -22 -83 -74 -190
-124 -253 -57 -71 -154 -142 -194 -142 l-32 0 50 34 c114 76 223 233 259 371
36 141 29 299 -19 432 -12 35 -21 63 -18 63 2 0 17 -28 32 -62z m7869 36 c31
-4 52 -12 52 -19 0 -9 -33 -14 -112 -18 -131 -6 -239 -36 -332 -92 -45 -27
-61 -33 -68 -23 -13 21 -5 31 50 64 113 68 278 103 410 88z m-7752 -169 c22
-65 27 -100 28 -185 1 -124 -13 -187 -64 -295 -44 -92 -109 -171 -157 -191
-53 -22 -51 -17 10 48 72 77 141 212 163 318 11 54 15 106 11 185 -5 100 -12
134 -51 250 -4 11 2 4 13 -15 11 -19 32 -71 47 -115z m-151 27 c31 -144 11
-301 -57 -440 -45 -94 -162 -211 -252 -253 -84 -39 -109 -26 -29 15 114 60
232 207 285 356 21 59 23 82 23 242 0 97 4 170 8 162 4 -8 15 -44 22 -82z
m189 51 c84 -168 98 -382 34 -548 -15 -41 -34 -67 -70 -96 l-48 -41 40 74 c56
104 80 206 80 338 0 110 -22 226 -55 289 -8 17 -13 31 -10 31 2 0 15 -21 29
-47z m1562 -53 c45 -33 88 -60 94 -60 7 0 36 17 64 37 28 20 66 47 85 60 l34
23 1738 0 c1726 0 1739 0 1759 -20 19 -19 20 -33 20 -255 0 -222 -1 -236 -20
-255 -20 -20 -33 -20 -1749 -20 -998 0 -1740 -4 -1753 -9 -13 -5 -59 -34 -102
-65 l-78 -56 -77 59 c-75 57 -79 59 -157 66 -90 9 -118 23 -133 67 -6 18 -11
110 -11 215 0 252 10 271 139 272 63 1 66 0 147 -59z m6232 48 c7 -7 12 -14
12 -17 0 -4 -44 -6 -98 -7 -139 -1 -284 -45 -384 -115 -26 -19 -27 -19 -33 3
-5 15 -2 26 11 36 34 26 145 75 213 93 79 21 260 26 279 7z m23 -78 c38 -21
18 -30 -69 -30 -115 0 -221 -27 -330 -85 -46 -25 -85 -45 -87 -45 -1 0 -5 8
-8 19 -8 33 136 107 268 136 73 16 199 19 226 5z m-8081 -157 c-26 -173 -115
-325 -245 -418 -39 -28 -90 -57 -113 -64 -38 -13 -46 -12 -83 4 l-40 19 59 21
c129 47 224 123 303 243 44 66 97 185 114 255 14 54 17 18 5 -60z m8104 77
c46 -17 29 -30 -39 -30 -129 0 -300 -52 -397 -121 -31 -23 -56 -15 -45 15 7
19 94 69 167 97 104 40 261 60 314 39z m50 -96 c11 -30 6 -32 -76 -27 -137 9
-254 -25 -373 -107 -40 -28 -46 -29 -52 -14 -13 34 118 109 249 144 95 25 243
27 252 4z m-4273 -451 c10 -12 14 -52 14 -153 0 -101 -4 -141 -14 -153 -12
-15 -61 -17 -518 -17 -328 0 -511 4 -524 10 -17 10 -19 23 -19 160 0 131 2
150 18 159 11 7 198 11 523 11 459 0 508 -2 520 -17z m-1516 -68 c0 -15 -7
-20 -29 -20 -42 0 -42 -19 0 -34 19 -7 39 -22 44 -34 6 -15 9 -17 9 -6 1 9 10
28 22 42 17 23 27 26 70 26 27 -1 49 -6 49 -12 0 -7 4 -7 12 1 20 20 39 13 49
-18 6 -16 15 -30 19 -30 4 0 13 14 19 30 10 29 34 40 46 20 3 -5 -11 -50 -32
-99 -28 -67 -43 -91 -56 -91 -16 0 -17 6 -12 43 5 31 1 53 -14 87 l-21 45 0
-45 c0 -25 -4 -52 -10 -60 -21 -33 -130 -12 -130 25 0 22 -14 18 -25 -7 -20
-45 -115 -49 -123 -5 -3 14 4 17 37 17 52 0 55 21 6 39 -43 15 -55 49 -31 87
15 21 23 25 59 22 34 -2 42 -7 42 -23z m-637 -394 c17 -5 66 -35 108 -65 49
-36 81 -53 88 -47 6 4 46 34 88 65 l78 57 92 -3 93 -3 3 -102 3 -103 -183 0
c-207 0 -276 12 -370 62 -63 33 -142 98 -159 129 -9 18 -5 19 58 19 38 0 83
-4 101 -9z m3892 -533 l0 -38 -1830 0 -1830 0 0 38 0 38 1830 0 1830 0 0 -38z
m0 -118 l0 -40 -1830 0 -1830 0 0 40 0 40 1830 0 1830 0 0 -40z m0 -130 l0
-40 -1830 0 -1830 0 0 40 0 40 1830 0 1830 0 0 -40z"/>
<path d="M6995 9509 c-546 -75 -959 -497 -1025 -1047 -25 -205 15 -476 98
-670 144 -334 432 -576 802 -674 110 -29 346 -36 465 -14 511 96 882 478 962
991 21 138 21 347 -1 458 -46 235 -156 446 -320 612 -170 171 -373 280 -610
329 -95 20 -281 28 -371 15z m396 -123 c200 -50 366 -144 508 -286 423 -423
423 -1097 0 -1519 -421 -422 -1092 -424 -1517 -4 -322 319 -409 805 -217 1219
101 220 299 418 519 519 87 41 225 82 316 95 105 14 283 4 391 -24z"/>
<path d="M7050 8095 c-25 -8 -65 -31 -88 -51 -124 -105 -131 -297 -15 -409 50
-49 99 -69 179 -73 89 -5 156 21 213 83 54 58 73 107 74 186 3 191 -177 321
-363 264z m236 -129 c28 -28 34 -42 34 -76 0 -58 -41 -100 -100 -100 -52 0
-76 13 -95 50 -21 41 -19 83 6 114 44 56 106 61 155 12z"/>
<path d="M10135 9514 c-208 -23 -426 -106 -585 -224 -85 -63 -225 -208 -279
-289 -94 -139 -158 -299 -188 -466 -19 -112 -13 -380 12 -500 93 -449 418
-793 862 -912 90 -25 114 -27 288 -27 176 0 197 2 290 28 114 31 273 103 366
167 81 55 217 185 280 269 100 133 185 330 214 499 22 126 30 322 16 424 -24
179 -88 354 -183 498 -178 269 -454 455 -767 515 -80 15 -258 25 -326 18z
m321 -118 c273 -58 523 -223 674 -446 63 -93 127 -234 157 -345 24 -89 27
-118 27 -265 0 -147 -3 -176 -27 -265 -63 -236 -201 -445 -390 -589 -270 -205
-612 -273 -937 -185 -100 27 -267 107 -349 168 -83 62 -205 188 -258 266 -124
184 -183 380 -183 605 0 290 99 536 299 743 172 178 373 283 615 323 97 16
271 11 372 -10z"/>
<path d="M10159 8096 c-87 -31 -149 -93 -177 -175 -18 -52 -14 -150 7 -197 47
-103 141 -164 250 -164 115 1 194 47 245 140 61 112 43 235 -48 325 -77 78
-183 105 -277 71z m77 -130 c28 -28 34 -42 34 -76 0 -110 -158 -141 -200 -40
-16 38 -6 91 23 117 49 45 98 44 143 -1z"/>
<path d="M7452 6984 c-19 -13 -22 -24 -22 -87 0 -380 203 -719 557 -929 521
-309 1230 -229 1649 186 193 191 286 391 314 669 17 176 6 192 -111 151 -527
-180 -1246 -222 -1869 -108 -142 26 -360 83 -442 115 -58 23 -49 22 -76 3z"/>
<path d="M9740 3526 l0 -93 50 -2 c40 0 52 3 65 21 22 33 19 65 -11 94 -18 19
-31 24 -50 20 -21 -6 -24 -3 -24 24 0 20 -5 30 -15 30 -12 0 -15 -17 -15 -94z"/>
<path d="M10246 3549 c-19 -15 -26 -30 -26 -54 0 -24 7 -39 26 -54 15 -12 32
-21 39 -21 7 0 24 9 39 21 19 15 26 30 26 54 0 24 -7 39 -26 54 -15 12 -32 21
-39 21 -7 0 -24 -9 -39 -21z"/>
<path d="M9034 3545 c-3 -7 -4 -34 -2 -61 2 -37 7 -50 21 -52 14 -3 17 4 17
47 0 28 5 51 10 51 6 0 13 0 18 0 4 0 9 -21 12 -47 4 -35 10 -49 23 -51 14 -3
17 4 17 46 0 33 5 52 14 55 22 9 36 -14 36 -60 0 -32 4 -43 15 -43 19 0 21
102 3 117 -19 15 -179 13 -184 -2z"/>
<path d="M9276 3542 c-21 -24 -21 -75 2 -95 11 -10 34 -15 65 -15 l47 1 0 62
0 62 -49 1 c-35 1 -53 -3 -65 -16z"/>
<path d="M8744 3037 c-24 -21 -28 -32 -28 -75 0 -65 22 -92 75 -92 48 0 69 27
69 91 0 82 -61 123 -116 76z"/>
<path d="M9791 2984 c-40 -51 -16 -114 43 -114 42 0 66 26 66 73 0 64 -70 90
-109 41z"/>
<path d="M10033 2994 c-2 -6 -3 -36 -1 -65 2 -40 7 -54 18 -54 11 0 16 14 20
50 4 36 9 50 20 50 11 0 16 -14 20 -50 4 -36 9 -50 20 -50 11 0 16 14 20 50 4
36 9 50 20 50 11 0 16 -14 20 -50 4 -36 9 -50 20 -50 11 0 16 14 18 51 3 60
-17 90 -52 79 -12 -4 -28 -7 -36 -6 -8 0 -35 2 -59 3 -25 2 -45 -2 -48 -8z"/>
<path d="M10279 2989 c-25 -25 -25 -81 -1 -102 13 -12 32 -16 63 -14 l44 3 3
44 c5 73 -1 85 -49 86 -28 1 -47 -4 -60 -17z"/>
<path d="M8980 2430 c-11 -11 -20 -29 -20 -40 0 -24 34 -60 57 -60 14 0 12 -4
-7 -25 -17 -18 -21 -28 -13 -36 15 -15 28 -5 64 43 34 47 38 97 11 121 -25 23
-68 21 -92 -3z"/>
<path d="M9136 2431 c-23 -26 -31 -84 -16 -121 36 -86 140 -54 140 43 0 59
-29 97 -74 97 -19 0 -40 -8 -50 -19z"/>
<path d="M7850 1828 c1 -35 28 -140 39 -151 19 -19 40 3 52 57 7 31 15 56 19
56 4 0 12 -25 19 -56 13 -55 33 -76 53 -56 12 12 48 159 40 167 -17 16 -31 0
-38 -42 -13 -89 -19 -92 -39 -20 -13 50 -22 67 -35 67 -13 0 -21 -14 -30 -52
-18 -77 -26 -87 -34 -42 -14 83 -18 94 -32 94 -8 0 -14 -10 -14 -22z"/>
<path d="M8283 1797 c-26 -14 -33 -28 -33 -63 0 -44 27 -65 81 -61 l44 3 0 64
0 64 -37 1 c-20 1 -45 -3 -55 -8z"/>
<path d="M9001 1784 c-40 -51 -16 -114 43 -114 42 0 66 26 66 73 0 64 -70 90
-109 41z"/>
<path d="M9663 1797 c-26 -14 -33 -28 -33 -63 0 -44 27 -65 81 -61 l44 3 0 64
0 64 -37 1 c-20 1 -45 -3 -55 -8z"/>
<path d="M9825 1801 c-29 -6 -30 -8 -30 -66 0 -47 3 -60 15 -60 11 0 16 14 20
50 4 36 9 50 20 50 11 0 16 -14 20 -50 4 -36 9 -50 20 -50 11 0 16 13 18 45 4
53 15 68 37 50 9 -8 15 -29 15 -56 0 -32 4 -44 15 -44 12 0 15 13 15 60 0 67
-18 88 -62 71 -13 -4 -32 -5 -43 0 -23 9 -20 9 -60 0z"/>
<path d="M8331 1248 c-60 -162 -59 -158 -36 -158 8 0 19 9 25 20 7 13 21 20
40 20 19 0 33 -7 40 -20 12 -22 40 -27 39 -7 0 6 -12 46 -27 87 -22 60 -31 76
-49 78 -17 2 -25 -3 -32 -20z"/>
<path d="M8481 1218 c-25 -128 -25 -130 -5 -126 15 3 21 16 28 67 9 69 21 67
32 -5 13 -86 46 -85 65 1 14 62 29 82 29 38 0 -55 13 -103 26 -103 17 0 18 32
3 117 -10 57 -14 64 -33 61 -16 -2 -25 -16 -38 -63 -9 -33 -17 -62 -18 -65 -1
-3 -10 24 -19 60 -14 52 -21 66 -38 68 -18 3 -23 -4 -32 -50z"/>
</g>
</svg>
